<?xml version="1.0"?>
<svg width="567" height="567" xmlns="http://www.w3.org/2000/svg" xmlns:svg="http://www.w3.org/2000/svg" preserveAspectRatio="xMidYMid meet" version="1.0">
 <g class="layer">
  <title>Layer 1</title>
  <g fill="#000000" id="svg_1" transform="matrix(0.1 0 0 -0.1 0 0)">
   <path d="m1504.75,-334c-189,-52 -311,-124 -432,-254c-100,-110 -158,-226 -197,-394c-24,-105 -7,-316 34,-414c23,-55 20,-61 -42,-73c-182,-36 -348,-124 -464,-248c-125,-132 -176,-229 -214,-411c-50,-239 29,-500 209,-689c77,-81 133,-122 235,-172c139,-69 235,-92 386,-92c110,-1 144,3 225,25c167,46 269,105 392,226l78,76l72,-71c139,-135 238,-189 453,-245c63,-17 252,-17 330,0c319,67 562,281 655,576c17,53 24,103 27,205c4,125 3,141 -22,220c-42,137 -42,137 -3,143c98,17 141,29 216,61c111,48 161,83 262,185c114,116 191,252 211,371c4,25 13,75 20,112c12,63 12,70 -9,110c-31,62 -81,92 -153,93c-43,0 -65,-5 -86,-21c-45,-34 -73,-82 -73,-128c0,-53 -32,-166 -61,-214c-119,-195 -336,-298 -555,-262c-90,15 -218,78 -277,136c-104,103 -145,198 -158,364c-16,230 -66,361 -193,510c-78,91 -157,154 -261,205c-138,68 -216,86 -380,91c-123,3 -150,0 -225,-21zm423,-334c140,-61 249,-186 292,-336c14,-46 16,-79 12,-145c-16,-217 -144,-377 -357,-447c-166,-54 -312,-33 -473,70c-128,82 -228,285 -212,432c24,209 131,351 331,435c66,28 75,29 199,27c123,-2 134,-4 208,-36zm-765,-1117c163,-41 311,-176 363,-331c28,-83 29,-214 3,-293c-42,-128 -125,-230 -238,-291c-110,-58 -171,-72 -296,-67c-100,4 -111,7 -195,48c-242,116 -354,367 -270,605c26,76 81,161 136,212c41,37 138,91 197,108c31,10 62,19 67,20c31,10 178,3 233,-11zm1378,0c165,-41 304,-167 365,-329c17,-47 20,-73 17,-168c-3,-105 -5,-117 -40,-189c-63,-133 -158,-217 -301,-270c-77,-28 -89,-30 -192,-25c-125,5 -180,22 -279,86c-106,69 -171,154 -206,270c-37,118 -28,233 26,348c85,179 264,290 468,292c44,1 108,-6 142,-15z" id="svg_2"/>
  </g>
 </g>
</svg>